<?xml version="1.0" encoding="UTF-8"?>
<svg version="1.1" xmlns="http://www.w3.org/2000/svg" width="122" height="122">
<path d="M0 0 C5.90160101 4.05735069 11.09302888 8.78122377 15.875 14.1015625 C16.40738281 14.66875 16.93976563 15.2359375 17.48828125 15.8203125 C28.50805284 28.80484957 30.03615759 46.85770893 28.875 63.1015625 C28.03130262 67.70521559 26.71798069 71.80729704 24.875 76.1015625 C24.50117187 76.98972656 24.12734375 77.87789063 23.7421875 78.79296875 C18.84730632 89.40935012 11.51055152 97.49095441 1.875 104.1015625 C-0.45703125 104.8515625 -0.45703125 104.8515625 -2.125 105.1015625 C-2.125 105.7615625 -2.125 106.4215625 -2.125 107.1015625 C-4.70732914 108.08344811 -7.29078683 109.06215839 -9.875 110.0390625 C-10.60460937 110.31685547 -11.33421875 110.59464844 -12.0859375 110.88085938 C-12.79492188 111.14833984 -13.50390625 111.41582031 -14.234375 111.69140625 C-14.88374023 111.93753662 -15.53310547 112.18366699 -16.20214844 112.43725586 C-28.37296848 116.64203003 -43.50425592 115.0423027 -55.125 110.1015625 C-56.14980469 109.67746094 -57.17460938 109.25335938 -58.23046875 108.81640625 C-65.71369369 105.41149148 -71.37445991 100.93211011 -77.125 95.1015625 C-77.77339844 94.46347656 -78.42179687 93.82539062 -79.08984375 93.16796875 C-84.11583133 87.87803434 -87.30161639 81.79492881 -90.125 75.1015625 C-90.39497803 74.46661865 -90.66495605 73.8316748 -90.94311523 73.17749023 C-93.48958384 66.52538211 -93.69940375 60.10840331 -93.6875 53.0390625 C-93.68943359 51.85272217 -93.69136719 50.66638184 -93.69335938 49.4440918 C-93.51752581 39.6646818 -91.57972635 31.75911103 -87.125 23.1015625 C-86.465 23.1015625 -85.805 23.1015625 -85.125 23.1015625 C-85.07601562 22.410625 -85.02703125 21.7196875 -84.9765625 21.0078125 C-83.78170522 16.92995097 -81.39881226 14.62671525 -78.5 11.6015625 C-77.99082031 11.04597656 -77.48164062 10.49039062 -76.95703125 9.91796875 C-73.33522567 6.06015579 -69.59480402 2.94694843 -65.125 0.1015625 C-64.135 0.1015625 -63.145 0.1015625 -62.125 0.1015625 C-62.125 -0.5584375 -62.125 -1.2184375 -62.125 -1.8984375 C-42.65766084 -11.91532258 -18.6946302 -11.35698785 0 0 Z M-33.125 -6.8984375 C-33.846875 -6.1559375 -34.56875 -5.4134375 -35.3125 -4.6484375 C-38.125 -1.8984375 -38.125 -1.8984375 -40.875 0.1015625 C-43.47648596 2.41399446 -43.84111066 3.69489041 -44.125 7.1015625 C-45.15173828 6.15023438 -45.15173828 6.15023438 -46.19921875 5.1796875 C-49.5773825 2.78024409 -51.85526441 2.34637894 -55.9375 1.8515625 C-57.09894531 1.70203125 -58.26039062 1.5525 -59.45703125 1.3984375 C-60.33746094 1.30046875 -61.21789062 1.2025 -62.125 1.1015625 C-64.99464374 7.35328636 -66.63637226 12.19803695 -66.125 19.1015625 C-67.424375 19.0190625 -68.72375 18.9365625 -70.0625 18.8515625 C-75.43424641 18.81745617 -79.4425455 20.62196484 -84.125 23.1015625 C-82.97008682 32.83556854 -82.97008682 32.83556854 -78.125 41.1015625 C-78.87394531 41.17503906 -79.62289062 41.24851563 -80.39453125 41.32421875 C-83.86002089 42.31081737 -84.74660968 43.63753115 -86.8125 46.5390625 C-90.09011628 51.06667878 -90.09011628 51.06667878 -92.125 53.1015625 C-91.485625 53.5346875 -90.84625 53.9678125 -90.1875 54.4140625 C-88.125 56.1015625 -88.125 56.1015625 -87.125 59.1015625 C-86.465 59.1015625 -85.805 59.1015625 -85.125 59.1015625 C-84.898125 59.7409375 -84.67125 60.3803125 -84.4375 61.0390625 C-83.27249104 63.37349911 -83.27249104 63.37349911 -80.5 63.8515625 C-79.71625 63.9340625 -78.9325 64.0165625 -78.125 64.1015625 C-78.764375 64.9059375 -79.40375 65.7103125 -80.0625 66.5390625 C-82.36477192 69.94383083 -82.7048568 73.00833638 -82.94921875 77.05078125 C-83.125 79.1015625 -83.125 79.1015625 -84.125 82.1015625 C-75.50411848 86.76318178 -75.50411848 86.76318178 -66.125 86.1015625 C-66.2075 87.4009375 -66.29 88.7003125 -66.375 90.0390625 C-66.40910633 95.41080891 -64.60459766 99.419108 -62.125 104.1015625 C-59.83100066 103.87395943 -57.53972363 103.61877371 -55.25 103.3515625 C-53.97382812 103.21234375 -52.69765625 103.073125 -51.3828125 102.9296875 C-48.03599877 102.45756236 -48.03599877 102.45756236 -46.6796875 100.0234375 C-46.49664062 99.38921875 -46.31359375 98.755 -46.125 98.1015625 C-45.465 98.1015625 -44.805 98.1015625 -44.125 98.1015625 C-43.795 100.0815625 -43.465 102.0615625 -43.125 104.1015625 C-42.465 104.1015625 -41.805 104.1015625 -41.125 104.1015625 C-41.125 104.7615625 -41.125 105.4215625 -41.125 106.1015625 C-38.155 107.0915625 -38.155 107.0915625 -35.125 108.1015625 C-35.125 108.7615625 -35.125 109.4215625 -35.125 110.1015625 C-34.465 110.1015625 -33.805 110.1015625 -33.125 110.1015625 C-32.795 110.7615625 -32.465 111.4215625 -32.125 112.1015625 C-26.333805 107.41133861 -26.333805 107.41133861 -21.125 102.1015625 C-21.125 100.7815625 -21.125 99.4615625 -21.125 98.1015625 C-20.09826172 99.05289063 -20.09826172 99.05289063 -19.05078125 100.0234375 C-15.6726175 102.42288091 -13.39473559 102.85674606 -9.3125 103.3515625 C-8.15105469 103.50109375 -6.98960938 103.650625 -5.79296875 103.8046875 C-4.91253906 103.90265625 -4.03210938 104.000625 -3.125 104.1015625 C1.28854626 96.57663448 1.28854626 96.57663448 1.875 88.1015625 C1.545 87.4415625 1.215 86.7815625 0.875 86.1015625 C2.2671875 86.50375 2.2671875 86.50375 3.6875 86.9140625 C9.27846751 87.78837018 14.06355886 84.61604078 18.875 82.1015625 C18.59267279 79.99612237 18.2988102 77.89222661 18 75.7890625 C17.83757812 74.61730469 17.67515625 73.44554688 17.5078125 72.23828125 C17.05199379 68.95625355 17.05199379 68.95625355 14.875 66.1015625 C14.215 66.1015625 13.555 66.1015625 12.875 66.1015625 C12.875 65.4415625 12.875 64.7815625 12.875 64.1015625 C13.77476563 64.04097656 14.67453125 63.98039062 15.6015625 63.91796875 C19.72611074 62.88929264 20.76686328 61.42126597 23.25 58.0390625 C23.93835938 57.11996094 24.62671875 56.20085937 25.3359375 55.25390625 C26.09777344 54.18849609 26.09777344 54.18849609 26.875 53.1015625 C26.215 52.1115625 25.555 51.1215625 24.875 50.1015625 C24.215 50.1015625 23.555 50.1015625 22.875 50.1015625 C21.885 47.1315625 21.885 47.1315625 20.875 44.1015625 C20.215 44.1015625 19.555 44.1015625 18.875 44.1015625 C18.875 43.4415625 18.875 42.7815625 18.875 42.1015625 C16.895 41.7715625 14.915 41.4415625 12.875 41.1015625 C12.875 40.4415625 12.875 39.7815625 12.875 39.1015625 C13.865 38.7715625 14.855 38.4415625 15.875 38.1015625 C18.51242618 33.55932853 18.49671712 28.22829098 18.875 23.1015625 C12.59046794 19.77358335 7.98841265 18.64991725 0.875 19.1015625 C1.143125 18.1734375 1.41125 17.2453125 1.6875 16.2890625 C2.56180768 10.69809499 -0.61052172 5.91300364 -3.125 1.1015625 C-12.85900604 2.25647568 -12.85900604 2.25647568 -21.125 7.1015625 C-21.104375 6.2559375 -21.08375 5.4103125 -21.0625 4.5390625 C-22.68499171 -0.71017538 -26.67251267 -2.93283585 -31.125 -5.8984375 C-31.785 -6.2284375 -32.445 -6.5584375 -33.125 -6.8984375 Z " fill="#E1B77C" transform="translate(93.125,7.8984375)"/>
<path d="M0 0 C1.9140625 0.6640625 1.9140625 0.6640625 4 2 C4.8984375 4.4609375 4.8984375 4.4609375 5.375 7.375 C5.54773438 8.33148438 5.72046875 9.28796875 5.8984375 10.2734375 C6.00752015 13.20188713 5.54232204 14.55315826 4 17 C5.32 17.66 6.64 18.32 8 19 C7.67 20.32 7.34 21.64 7 23 C5.02 23 3.04 23 1 23 C1 26.96 1 30.92 1 35 C-0.485 34.505 -0.485 34.505 -2 34 C-2.80842208 30.46315341 -3 27.72159473 -3 24 C-8.445 25.485 -8.445 25.485 -14 27 C-15.96822886 25.03177114 -15.66248381 21.65191291 -16 19 C-16.763125 19.99 -17.52625 20.98 -18.3125 22 C-19.61328125 23.6875 -19.61328125 23.6875 -21 25 C-21.99 25 -22.98 25 -24 25 C-23.49701212 20.59885603 -21.91227269 18.28804981 -19 15 C-20.32 14.67 -21.64 14.34 -23 14 C-23 13.01 -23 12.02 -23 11 C-19.7 9.35 -16.4 7.7 -13 6 C-13.33 4.35 -13.66 2.7 -14 1 C-12.68 1.33 -11.36 1.66 -10 2 C-10 2.66 -10 3.32 -10 4 C-9.01 4.33 -8.02 4.66 -7 5 C-6.67 3.68 -6.34 2.36 -6 1 C-5.01 1.33 -4.02 1.66 -3 2 C-3 2.99 -3 3.98 -3 5 C-2.34 5 -1.68 5 -1 5 C-0.67 3.35 -0.34 1.7 0 0 Z M-8 12 C-10.41406917 14.51063194 -10.98333433 15.71112844 -11.1875 19.25 C-11.0946875 20.61125 -11.0946875 20.61125 -11 22 C-9.35 21.67 -7.7 21.34 -6 21 C-6.33 18.03 -6.66 15.06 -7 12 C-7.33 12 -7.66 12 -8 12 Z M-12 22 C-11 24 -11 24 -11 24 Z " fill="#E2B77A" transform="translate(51,27)"/>
<path d="M0 0 C1.9375 0.625 1.9375 0.625 4 2 C4.75 5.125 4.75 5.125 5 8 C5.33 7.01 5.66 6.02 6 5 C6.66 5 7.32 5 8 5 C8.33 3.35 8.66 1.7 9 0 C9.99 0 10.98 0 12 0 C12.12375 0.639375 12.2475 1.27875 12.375 1.9375 C12.58125 2.618125 12.7875 3.29875 13 4 C13.66 4.33 14.32 4.66 15 5 C15 5.99 15 6.98 15 8 C14.01 8 13.02 8 12 8 C12 9.32 12 10.64 12 12 C13.32 12 14.64 12 16 12 C15.67 13.32 15.34 14.64 15 16 C16.65 16.66 18.3 17.32 20 18 C20 18.99 20 19.98 20 21 C18.35 21.33 16.7 21.66 15 22 C14.67 23.32 14.34 24.64 14 26 C12.35 26 10.7 26 9 26 C9.020625 27.051875 9.04125 28.10375 9.0625 29.1875 C9.01103198 32.32704904 8.73482813 34.96883396 8 38 C6.68 37.67 5.36 37.34 4 37 C3.67 33.7 3.34 30.4 3 27 C1.35 27 -0.3 27 -2 27 C-2.66 26.34 -3.32 25.68 -4 25 C-6.00636471 25.29259485 -8.00714063 25.62633887 -10 26 C-10.66 25.67 -11.32 25.34 -12 25 C-11.505 23.515 -11.505 23.515 -11 22 C-7.4375 20.8125 -7.4375 20.8125 -4 20 C-3.67 17.36 -3.34 14.72 -3 12 C-1.35 11.67 0.3 11.34 2 11 C0.02 10.34 -1.96 9.68 -4 9 C-4 8.01 -4 7.02 -4 6 C-2.68 5.67 -1.36 5.34 0 5 C0 3.35 0 1.7 0 0 Z M4 14 C3.67 15.32 3.34 16.64 3 18 C3.66 18 4.32 18 5 18 C4.67 16.68 4.34 15.36 4 14 Z " fill="#E2B87B" transform="translate(74,58)"/>
<path d="M0 0 C1.65 0.33 3.3 0.66 5 1 C5.33 1.99 5.66 2.98 6 4 C6.99 4.33 7.98 4.66 9 5 C9.6875 7.0625 9.6875 7.0625 10 9 C12.97 9.495 12.97 9.495 16 10 C16 11.32 16 12.64 16 14 C14.35 14.33 12.7 14.66 11 15 C11.66 16.32 12.32 17.64 13 19 C11.68 19.33 10.36 19.66 9 20 C9.05800781 20.74765625 9.11601563 21.4953125 9.17578125 22.265625 C9.3123963 25.24773629 9.36265008 28.03480226 9 31 C6.5 33.6875 6.5 33.6875 4 35 C1.5 32.75 1.5 32.75 -1 30 C-1 28.68 -1 27.36 -1 26 C-3.92321965 23.71760829 -3.92321965 23.71760829 -7 22 C-6.67 21.01 -6.34 20.02 -6 19 C-8.31 19.33 -10.62 19.66 -13 20 C-13.33 18.35 -13.66 16.7 -14 15 C-10.37 14.01 -6.74 13.02 -3 12 C-3.99 11.01 -4.98 10.02 -6 9 C-6 8.01 -6 7.02 -6 6 C-4.02 5.67 -2.04 5.34 0 5 C0 3.35 0 1.7 0 0 Z M2 21 C2.99 22.485 2.99 22.485 4 24 C4 23.01 4 22.02 4 21 C3.34 21 2.68 21 2 21 Z M3 27 C4 29 4 29 4 29 Z " fill="#E2B77B" transform="translate(42,60)"/>
<path d="M0 0 C0.99 0 1.98 0 3 0 C3 1.65 3 3.3 3 5 C5.475 5.495 5.475 5.495 8 6 C7.67 7.32 7.34 8.64 7 10 C6.01 10 5.02 10 4 10 C5.13070935 15.09592239 5.13070935 15.09592239 8.1875 19.1875 C8.785625 19.785625 9.38375 20.38375 10 21 C9.75 23.25 9.75 23.25 9 25 C8.38125 24.67 7.7625 24.34 7.125 24 C5.08981656 22.85806765 5.08981656 22.85806765 3 23 C1.00125631 23.76575245 -0.9618397 24.59964626 -2.9296875 25.44140625 C-5.33385119 26.09007683 -6.67001127 25.78885269 -9 25 C-7.5 22 -7.5 22 -6 19 C-6 17.68 -6 16.36 -6 15 C-5.34 15 -4.68 15 -4 15 C-4 14.34 -4 13.68 -4 13 C-5.3921875 13.3403125 -5.3921875 13.3403125 -6.8125 13.6875 C-7.864375 13.790625 -8.91625 13.89375 -10 14 C-11.69921875 12.51953125 -11.69921875 12.51953125 -13 11 C-11.3767313 10.3291288 -9.75132422 9.66342971 -8.125 9 C-7.22007813 8.62875 -6.31515625 8.2575 -5.3828125 7.875 C-3 7 -3 7 -1 7 C-0.67 4.69 -0.34 2.38 0 0 Z " fill="#E2B77A" transform="translate(84,27)"/>
<path d="M0 0 C2.3125 -0.25 2.3125 -0.25 5 0 C6.8125 2 6.8125 2 8 4 C8.99 3.67 9.98 3.34 11 3 C10.52396226 5.12570312 10.04407402 7.25054427 9.5625 9.375 C9.29566406 10.55835938 9.02882813 11.74171875 8.75390625 12.9609375 C8 16 8 16 7 18 C5.68 17.67 4.36 17.34 3 17 C2.67 15.68 2.34 14.36 2 13 C2.66 13 3.32 13 4 13 C4.33 11.68 4.66 10.36 5 9 C4.34 9 3.68 9 3 9 C2.01 6.03 1.02 3.06 0 0 Z " fill="#E0B87A" transform="translate(62,38)"/>
<path d="M0 0 C5.46428571 0.60714286 5.46428571 0.60714286 7.875 2.375 C9 4 9 4 9 7 C6.1875 7.3125 6.1875 7.3125 3 7 C1.11400657 4.61107499 0 3.08148442 0 0 Z " fill="#E1B57E" transform="translate(67,28)"/>
</svg>
